<mxfile host="app.diagrams.net" modified="2022-01-26T18:17:18.162Z" agent="5.0 (Windows NT 10.0; Win64; x64) AppleWebKit/537.36 (KHTML, like Gecko) Chrome/96.0.4664.110 Safari/537.36 OPR/82.0.4227.50" etag="rBD7Fqq3lYVaku1gdgQt" version="16.4.7" type="github">
  <diagram id="R2lEEEUBdFMjLlhIrx00" name="Page-1">
    <mxGraphModel dx="2231" dy="756" grid="1" gridSize="10" guides="1" tooltips="1" connect="1" arrows="1" fold="1" page="1" pageScale="1" pageWidth="850" pageHeight="1100" math="0" shadow="0" extFonts="Permanent Marker^https://fonts.googleapis.com/css?family=Permanent+Marker">
      <root>
        <mxCell id="0" />
        <mxCell id="1" parent="0" />
        <mxCell id="lsEW4l9LYhUWOwgEdOW6-17" style="edgeStyle=orthogonalEdgeStyle;rounded=0;orthogonalLoop=1;jettySize=auto;html=1;exitX=0.5;exitY=0;exitDx=0;exitDy=0;entryX=1;entryY=0.5;entryDx=0;entryDy=0;fontSize=18;endArrow=none;endFill=0;" parent="1" source="lsEW4l9LYhUWOwgEdOW6-2" target="lsEW4l9LYhUWOwgEdOW6-16" edge="1">
          <mxGeometry relative="1" as="geometry" />
        </mxCell>
        <mxCell id="lsEW4l9LYhUWOwgEdOW6-18" style="edgeStyle=orthogonalEdgeStyle;rounded=0;orthogonalLoop=1;jettySize=auto;html=1;exitX=0.75;exitY=0;exitDx=0;exitDy=0;entryX=1;entryY=0.5;entryDx=0;entryDy=0;fontSize=18;endArrow=none;endFill=0;" parent="1" source="lsEW4l9LYhUWOwgEdOW6-2" target="lsEW4l9LYhUWOwgEdOW6-15" edge="1">
          <mxGeometry relative="1" as="geometry" />
        </mxCell>
        <mxCell id="lsEW4l9LYhUWOwgEdOW6-19" style="edgeStyle=orthogonalEdgeStyle;rounded=0;orthogonalLoop=1;jettySize=auto;html=1;exitX=0.25;exitY=0;exitDx=0;exitDy=0;entryX=1;entryY=0.5;entryDx=0;entryDy=0;fontSize=18;endArrow=none;endFill=0;" parent="1" source="lsEW4l9LYhUWOwgEdOW6-2" target="lsEW4l9LYhUWOwgEdOW6-14" edge="1">
          <mxGeometry relative="1" as="geometry" />
        </mxCell>
        <mxCell id="lsEW4l9LYhUWOwgEdOW6-24" style="edgeStyle=orthogonalEdgeStyle;rounded=0;orthogonalLoop=1;jettySize=auto;html=1;exitX=0;exitY=0.25;exitDx=0;exitDy=0;entryX=1;entryY=0.5;entryDx=0;entryDy=0;fontSize=14;endArrow=none;endFill=0;" parent="1" source="lsEW4l9LYhUWOwgEdOW6-2" target="lsEW4l9LYhUWOwgEdOW6-20" edge="1">
          <mxGeometry relative="1" as="geometry" />
        </mxCell>
        <mxCell id="ZjU3WxE_IYfysGuQ2glQ-20" style="edgeStyle=orthogonalEdgeStyle;rounded=0;orthogonalLoop=1;jettySize=auto;html=1;exitX=0;exitY=0.5;exitDx=0;exitDy=0;entryX=0.5;entryY=0;entryDx=0;entryDy=0;fontSize=14;endArrow=none;endFill=0;" parent="1" source="lsEW4l9LYhUWOwgEdOW6-2" target="ZjU3WxE_IYfysGuQ2glQ-4" edge="1">
          <mxGeometry relative="1" as="geometry" />
        </mxCell>
        <mxCell id="ZjU3WxE_IYfysGuQ2glQ-44" style="edgeStyle=orthogonalEdgeStyle;rounded=0;orthogonalLoop=1;jettySize=auto;html=1;exitX=1;exitY=0.25;exitDx=0;exitDy=0;entryX=0;entryY=0.5;entryDx=0;entryDy=0;fontSize=14;endArrow=none;endFill=0;" parent="1" source="lsEW4l9LYhUWOwgEdOW6-2" target="ZjU3WxE_IYfysGuQ2glQ-43" edge="1">
          <mxGeometry relative="1" as="geometry" />
        </mxCell>
        <mxCell id="ZjU3WxE_IYfysGuQ2glQ-60" style="edgeStyle=orthogonalEdgeStyle;rounded=0;orthogonalLoop=1;jettySize=auto;html=1;exitX=1;exitY=0.75;exitDx=0;exitDy=0;entryX=0;entryY=0.5;entryDx=0;entryDy=0;fontSize=14;endArrow=none;endFill=0;" parent="1" source="lsEW4l9LYhUWOwgEdOW6-2" target="ZjU3WxE_IYfysGuQ2glQ-59" edge="1">
          <mxGeometry relative="1" as="geometry" />
        </mxCell>
        <mxCell id="ZjU3WxE_IYfysGuQ2glQ-64" style="edgeStyle=orthogonalEdgeStyle;rounded=0;orthogonalLoop=1;jettySize=auto;html=1;exitX=0.25;exitY=1;exitDx=0;exitDy=0;entryX=1;entryY=0.5;entryDx=0;entryDy=0;fontSize=14;endArrow=none;endFill=0;" parent="1" source="lsEW4l9LYhUWOwgEdOW6-2" target="ZjU3WxE_IYfysGuQ2glQ-18" edge="1">
          <mxGeometry relative="1" as="geometry" />
        </mxCell>
        <mxCell id="ZjU3WxE_IYfysGuQ2glQ-65" style="edgeStyle=orthogonalEdgeStyle;rounded=0;orthogonalLoop=1;jettySize=auto;html=1;exitX=0.75;exitY=1;exitDx=0;exitDy=0;entryX=0;entryY=0.5;entryDx=0;entryDy=0;fontSize=14;endArrow=none;endFill=0;" parent="1" source="lsEW4l9LYhUWOwgEdOW6-2" target="ZjU3WxE_IYfysGuQ2glQ-62" edge="1">
          <mxGeometry relative="1" as="geometry" />
        </mxCell>
        <mxCell id="lsEW4l9LYhUWOwgEdOW6-2" value="&lt;font size=&quot;3&quot;&gt;animals&lt;/font&gt;" style="rounded=1;whiteSpace=wrap;html=1;" parent="1" vertex="1">
          <mxGeometry x="342.5" y="180" width="160" height="70" as="geometry" />
        </mxCell>
        <mxCell id="lsEW4l9LYhUWOwgEdOW6-14" value="&lt;font style=&quot;font-size: 14px&quot;&gt;register&lt;/font&gt;" style="ellipse;whiteSpace=wrap;html=1;align=center;fontStyle=4;fontSize=18;rotation=90;" parent="1" vertex="1">
          <mxGeometry x="310" y="65" width="100" height="40" as="geometry" />
        </mxCell>
        <mxCell id="lsEW4l9LYhUWOwgEdOW6-15" value="&lt;font style=&quot;font-size: 14px&quot;&gt;sex&lt;/font&gt;" style="ellipse;whiteSpace=wrap;html=1;align=center;fontSize=18;rotation=90;" parent="1" vertex="1">
          <mxGeometry x="430" y="65" width="100" height="40" as="geometry" />
        </mxCell>
        <mxCell id="lsEW4l9LYhUWOwgEdOW6-16" value="&lt;font style=&quot;font-size: 14px&quot;&gt;nameA&lt;br&gt;&lt;/font&gt;" style="ellipse;whiteSpace=wrap;html=1;align=center;fontSize=18;rotation=90;" parent="1" vertex="1">
          <mxGeometry x="372.5" y="65" width="100" height="40" as="geometry" />
        </mxCell>
        <mxCell id="lsEW4l9LYhUWOwgEdOW6-20" value="&lt;font style=&quot;font-size: 14px&quot;&gt;localA&lt;br&gt;&lt;/font&gt;" style="ellipse;whiteSpace=wrap;html=1;align=center;fontSize=18;rotation=90;" parent="1" vertex="1">
          <mxGeometry x="250" y="65" width="100" height="40" as="geometry" />
        </mxCell>
        <mxCell id="lsEW4l9LYhUWOwgEdOW6-36" value="&lt;font style=&quot;font-size: 14px&quot;&gt;class&lt;/font&gt;" style="ellipse;whiteSpace=wrap;html=1;align=center;fontSize=18;rotation=90;" parent="1" vertex="1">
          <mxGeometry x="-280" y="670" width="100" height="40" as="geometry" />
        </mxCell>
        <mxCell id="lsEW4l9LYhUWOwgEdOW6-38" value="&lt;span style=&quot;font-size: 14px&quot;&gt;orderA&lt;br&gt;&lt;/span&gt;" style="ellipse;whiteSpace=wrap;html=1;align=center;fontSize=18;rotation=90;" parent="1" vertex="1">
          <mxGeometry x="-210" y="670" width="100" height="40" as="geometry" />
        </mxCell>
        <mxCell id="lsEW4l9LYhUWOwgEdOW6-41" value="&lt;font style=&quot;font-size: 14px&quot;&gt;family&lt;/font&gt;" style="ellipse;whiteSpace=wrap;html=1;align=center;fontSize=18;rotation=90;" parent="1" vertex="1">
          <mxGeometry x="-140" y="670" width="100" height="40" as="geometry" />
        </mxCell>
        <mxCell id="lsEW4l9LYhUWOwgEdOW6-43" value="&lt;font style=&quot;font-size: 14px&quot;&gt;&lt;u&gt;species&lt;/u&gt;&lt;/font&gt;" style="ellipse;whiteSpace=wrap;html=1;align=center;fontSize=18;rotation=90;" parent="1" vertex="1">
          <mxGeometry x="-50" y="670" width="100" height="40" as="geometry" />
        </mxCell>
        <mxCell id="ZjU3WxE_IYfysGuQ2glQ-5" style="edgeStyle=orthogonalEdgeStyle;rounded=0;orthogonalLoop=1;jettySize=auto;html=1;exitX=0.5;exitY=1;exitDx=0;exitDy=0;endArrow=none;endFill=0;" parent="1" source="ZjU3WxE_IYfysGuQ2glQ-4" edge="1">
          <mxGeometry relative="1" as="geometry">
            <mxPoint x="-170" y="520" as="targetPoint" />
          </mxGeometry>
        </mxCell>
        <mxCell id="ZjU3WxE_IYfysGuQ2glQ-4" value="belongs to" style="shape=rhombus;perimeter=rhombusPerimeter;whiteSpace=wrap;html=1;align=center;fontSize=14;" parent="1" vertex="1">
          <mxGeometry x="-230" y="350" width="120" height="60" as="geometry" />
        </mxCell>
        <mxCell id="ZjU3WxE_IYfysGuQ2glQ-7" style="edgeStyle=orthogonalEdgeStyle;rounded=0;orthogonalLoop=1;jettySize=auto;html=1;exitX=0.25;exitY=1;exitDx=0;exitDy=0;entryX=0;entryY=0.5;entryDx=0;entryDy=0;endArrow=none;endFill=0;" parent="1" source="ZjU3WxE_IYfysGuQ2glQ-6" target="lsEW4l9LYhUWOwgEdOW6-36" edge="1">
          <mxGeometry relative="1" as="geometry" />
        </mxCell>
        <mxCell id="ZjU3WxE_IYfysGuQ2glQ-8" style="edgeStyle=orthogonalEdgeStyle;rounded=0;orthogonalLoop=1;jettySize=auto;html=1;exitX=0.5;exitY=1;exitDx=0;exitDy=0;entryX=0;entryY=0.5;entryDx=0;entryDy=0;endArrow=none;endFill=0;" parent="1" source="ZjU3WxE_IYfysGuQ2glQ-6" target="lsEW4l9LYhUWOwgEdOW6-38" edge="1">
          <mxGeometry relative="1" as="geometry" />
        </mxCell>
        <mxCell id="ZjU3WxE_IYfysGuQ2glQ-9" style="edgeStyle=orthogonalEdgeStyle;rounded=0;orthogonalLoop=1;jettySize=auto;html=1;exitX=0.75;exitY=1;exitDx=0;exitDy=0;entryX=0;entryY=0.5;entryDx=0;entryDy=0;endArrow=none;endFill=0;" parent="1" source="ZjU3WxE_IYfysGuQ2glQ-6" target="lsEW4l9LYhUWOwgEdOW6-41" edge="1">
          <mxGeometry relative="1" as="geometry" />
        </mxCell>
        <mxCell id="ZjU3WxE_IYfysGuQ2glQ-10" style="edgeStyle=orthogonalEdgeStyle;rounded=0;orthogonalLoop=1;jettySize=auto;html=1;exitX=1;exitY=0.75;exitDx=0;exitDy=0;entryX=0;entryY=0.5;entryDx=0;entryDy=0;endArrow=none;endFill=0;" parent="1" source="ZjU3WxE_IYfysGuQ2glQ-6" target="lsEW4l9LYhUWOwgEdOW6-43" edge="1">
          <mxGeometry relative="1" as="geometry" />
        </mxCell>
        <mxCell id="ZjU3WxE_IYfysGuQ2glQ-6" value="&lt;font size=&quot;3&quot;&gt;class_bio&lt;/font&gt;" style="rounded=1;whiteSpace=wrap;html=1;" parent="1" vertex="1">
          <mxGeometry x="-240" y="520" width="160" height="70" as="geometry" />
        </mxCell>
        <mxCell id="ZjU3WxE_IYfysGuQ2glQ-22" style="edgeStyle=orthogonalEdgeStyle;rounded=0;orthogonalLoop=1;jettySize=auto;html=1;exitX=0;exitY=0.25;exitDx=0;exitDy=0;entryX=0.5;entryY=0;entryDx=0;entryDy=0;fontSize=14;endArrow=none;endFill=0;" parent="1" source="ZjU3WxE_IYfysGuQ2glQ-18" target="ZjU3WxE_IYfysGuQ2glQ-21" edge="1">
          <mxGeometry relative="1" as="geometry" />
        </mxCell>
        <mxCell id="ZjU3WxE_IYfysGuQ2glQ-24" style="edgeStyle=orthogonalEdgeStyle;rounded=0;orthogonalLoop=1;jettySize=auto;html=1;exitX=0;exitY=0.75;exitDx=0;exitDy=0;entryX=0.5;entryY=0;entryDx=0;entryDy=0;fontSize=14;endArrow=none;endFill=0;" parent="1" source="ZjU3WxE_IYfysGuQ2glQ-18" target="ZjU3WxE_IYfysGuQ2glQ-23" edge="1">
          <mxGeometry relative="1" as="geometry" />
        </mxCell>
        <mxCell id="ZjU3WxE_IYfysGuQ2glQ-18" value="" style="triangle;whiteSpace=wrap;html=1;rotation=-90;" parent="1" vertex="1">
          <mxGeometry x="182.5" y="290" width="60" height="80" as="geometry" />
        </mxCell>
        <mxCell id="ZjU3WxE_IYfysGuQ2glQ-19" value="ISA" style="text;html=1;resizable=0;autosize=1;align=center;verticalAlign=middle;points=[];fillColor=none;strokeColor=none;rounded=0;fontSize=14;" parent="1" vertex="1">
          <mxGeometry x="192.5" y="330" width="40" height="20" as="geometry" />
        </mxCell>
        <mxCell id="ZjU3WxE_IYfysGuQ2glQ-26" style="edgeStyle=orthogonalEdgeStyle;rounded=0;orthogonalLoop=1;jettySize=auto;html=1;exitX=0.25;exitY=1;exitDx=0;exitDy=0;entryX=0;entryY=0.5;entryDx=0;entryDy=0;fontSize=14;endArrow=none;endFill=0;" parent="1" source="ZjU3WxE_IYfysGuQ2glQ-21" target="ZjU3WxE_IYfysGuQ2glQ-27" edge="1">
          <mxGeometry relative="1" as="geometry">
            <mxPoint x="40" y="480" as="targetPoint" />
          </mxGeometry>
        </mxCell>
        <mxCell id="ZjU3WxE_IYfysGuQ2glQ-21" value="&lt;font size=&quot;3&quot;&gt;captivity&lt;/font&gt;" style="rounded=1;whiteSpace=wrap;html=1;" parent="1" vertex="1">
          <mxGeometry x="60" y="410" width="110" height="40" as="geometry" />
        </mxCell>
        <mxCell id="ZjU3WxE_IYfysGuQ2glQ-29" style="edgeStyle=orthogonalEdgeStyle;rounded=0;orthogonalLoop=1;jettySize=auto;html=1;exitX=0.25;exitY=1;exitDx=0;exitDy=0;entryX=0;entryY=0.5;entryDx=0;entryDy=0;fontSize=14;endArrow=none;endFill=0;" parent="1" source="ZjU3WxE_IYfysGuQ2glQ-23" target="ZjU3WxE_IYfysGuQ2glQ-28" edge="1">
          <mxGeometry relative="1" as="geometry" />
        </mxCell>
        <mxCell id="ZjU3WxE_IYfysGuQ2glQ-32" style="edgeStyle=orthogonalEdgeStyle;rounded=0;orthogonalLoop=1;jettySize=auto;html=1;exitX=0.5;exitY=1;exitDx=0;exitDy=0;entryX=0;entryY=0.5;entryDx=0;entryDy=0;fontSize=14;endArrow=none;endFill=0;" parent="1" source="ZjU3WxE_IYfysGuQ2glQ-23" target="ZjU3WxE_IYfysGuQ2glQ-31" edge="1">
          <mxGeometry relative="1" as="geometry" />
        </mxCell>
        <mxCell id="ZjU3WxE_IYfysGuQ2glQ-34" style="edgeStyle=orthogonalEdgeStyle;rounded=0;orthogonalLoop=1;jettySize=auto;html=1;exitX=0.75;exitY=1;exitDx=0;exitDy=0;entryX=0;entryY=0.5;entryDx=0;entryDy=0;fontSize=14;endArrow=none;endFill=0;" parent="1" source="ZjU3WxE_IYfysGuQ2glQ-23" target="ZjU3WxE_IYfysGuQ2glQ-30" edge="1">
          <mxGeometry relative="1" as="geometry" />
        </mxCell>
        <mxCell id="ZjU3WxE_IYfysGuQ2glQ-23" value="&lt;font size=&quot;3&quot;&gt;capture&lt;/font&gt;" style="rounded=1;whiteSpace=wrap;html=1;" parent="1" vertex="1">
          <mxGeometry x="250" y="410" width="110" height="40" as="geometry" />
        </mxCell>
        <mxCell id="ZjU3WxE_IYfysGuQ2glQ-27" value="&lt;span style=&quot;font-size: 14px&quot;&gt;&lt;u&gt;birthdayA&lt;/u&gt;&lt;/span&gt;" style="ellipse;whiteSpace=wrap;html=1;align=center;fontSize=18;rotation=90;" parent="1" vertex="1">
          <mxGeometry x="-10" y="510" width="100" height="40" as="geometry" />
        </mxCell>
        <mxCell id="ZjU3WxE_IYfysGuQ2glQ-28" value="&lt;span style=&quot;font-size: 14px&quot;&gt;birthdayA&lt;/span&gt;" style="ellipse;whiteSpace=wrap;html=1;align=center;fontSize=18;rotation=90;" parent="1" vertex="1">
          <mxGeometry x="182.5" y="510" width="100" height="40" as="geometry" />
        </mxCell>
        <mxCell id="ZjU3WxE_IYfysGuQ2glQ-30" value="&lt;font style=&quot;font-size: 14px&quot;&gt;&lt;u&gt;localC&lt;/u&gt;&lt;/font&gt;" style="ellipse;whiteSpace=wrap;html=1;align=center;fontSize=18;rotation=90;" parent="1" vertex="1">
          <mxGeometry x="330" y="510" width="100" height="40" as="geometry" />
        </mxCell>
        <mxCell id="ZjU3WxE_IYfysGuQ2glQ-31" value="&lt;span style=&quot;font-size: 14px&quot;&gt;&lt;u&gt;dateC&lt;/u&gt;&lt;/span&gt;" style="ellipse;whiteSpace=wrap;html=1;align=center;fontSize=18;rotation=90;" parent="1" vertex="1">
          <mxGeometry x="255" y="510" width="100" height="40" as="geometry" />
        </mxCell>
        <mxCell id="ZjU3WxE_IYfysGuQ2glQ-38" style="edgeStyle=orthogonalEdgeStyle;rounded=0;orthogonalLoop=1;jettySize=auto;html=1;exitX=0.25;exitY=0;exitDx=0;exitDy=0;entryX=1;entryY=0.5;entryDx=0;entryDy=0;fontSize=14;endArrow=none;endFill=0;" parent="1" source="ZjU3WxE_IYfysGuQ2glQ-35" target="ZjU3WxE_IYfysGuQ2glQ-37" edge="1">
          <mxGeometry relative="1" as="geometry">
            <Array as="points">
              <mxPoint x="760" y="120" />
              <mxPoint x="690" y="120" />
            </Array>
          </mxGeometry>
        </mxCell>
        <mxCell id="ZjU3WxE_IYfysGuQ2glQ-40" style="edgeStyle=orthogonalEdgeStyle;rounded=0;orthogonalLoop=1;jettySize=auto;html=1;exitX=0.5;exitY=0;exitDx=0;exitDy=0;entryX=1;entryY=0.5;entryDx=0;entryDy=0;fontSize=14;endArrow=none;endFill=0;" parent="1" source="ZjU3WxE_IYfysGuQ2glQ-35" target="ZjU3WxE_IYfysGuQ2glQ-39" edge="1">
          <mxGeometry relative="1" as="geometry" />
        </mxCell>
        <mxCell id="ZjU3WxE_IYfysGuQ2glQ-47" style="edgeStyle=orthogonalEdgeStyle;rounded=0;orthogonalLoop=1;jettySize=auto;html=1;exitX=0.75;exitY=0;exitDx=0;exitDy=0;entryX=1;entryY=0.5;entryDx=0;entryDy=0;fontSize=14;endArrow=none;endFill=0;" parent="1" source="ZjU3WxE_IYfysGuQ2glQ-35" target="ZjU3WxE_IYfysGuQ2glQ-46" edge="1">
          <mxGeometry relative="1" as="geometry" />
        </mxCell>
        <mxCell id="ZjU3WxE_IYfysGuQ2glQ-49" style="edgeStyle=orthogonalEdgeStyle;rounded=0;orthogonalLoop=1;jettySize=auto;html=1;exitX=1;exitY=0.25;exitDx=0;exitDy=0;entryX=1;entryY=0.5;entryDx=0;entryDy=0;fontSize=14;endArrow=none;endFill=0;" parent="1" source="ZjU3WxE_IYfysGuQ2glQ-35" target="ZjU3WxE_IYfysGuQ2glQ-48" edge="1">
          <mxGeometry relative="1" as="geometry" />
        </mxCell>
        <mxCell id="ZjU3WxE_IYfysGuQ2glQ-50" style="edgeStyle=orthogonalEdgeStyle;rounded=0;orthogonalLoop=1;jettySize=auto;html=1;exitX=1;exitY=0.75;exitDx=0;exitDy=0;fontSize=14;endArrow=none;endFill=0;entryX=0;entryY=0.5;entryDx=0;entryDy=0;" parent="1" source="ZjU3WxE_IYfysGuQ2glQ-35" target="ZjU3WxE_IYfysGuQ2glQ-51" edge="1">
          <mxGeometry relative="1" as="geometry">
            <mxPoint x="1079.9999999999995" y="192.05882352941182" as="targetPoint" />
          </mxGeometry>
        </mxCell>
        <mxCell id="ZjU3WxE_IYfysGuQ2glQ-35" value="&lt;font size=&quot;3&quot;&gt;habitat&lt;/font&gt;" style="rounded=1;whiteSpace=wrap;html=1;" parent="1" vertex="1">
          <mxGeometry x="750" y="140" width="160" height="70" as="geometry" />
        </mxCell>
        <mxCell id="ZjU3WxE_IYfysGuQ2glQ-37" value="&lt;font style=&quot;font-size: 14px&quot;&gt;local&lt;/font&gt;" style="ellipse;whiteSpace=wrap;html=1;align=center;fontSize=18;rotation=90;" parent="1" vertex="1">
          <mxGeometry x="700" y="30" width="100" height="40" as="geometry" />
        </mxCell>
        <mxCell id="ZjU3WxE_IYfysGuQ2glQ-39" value="&lt;font style=&quot;font-size: 14px&quot;&gt;area&lt;/font&gt;" style="ellipse;whiteSpace=wrap;html=1;align=center;fontSize=18;rotation=90;" parent="1" vertex="1">
          <mxGeometry x="780" y="30" width="100" height="40" as="geometry" />
        </mxCell>
        <mxCell id="ZjU3WxE_IYfysGuQ2glQ-45" style="edgeStyle=orthogonalEdgeStyle;rounded=0;orthogonalLoop=1;jettySize=auto;html=1;exitX=1;exitY=0.5;exitDx=0;exitDy=0;entryX=0;entryY=0.5;entryDx=0;entryDy=0;fontSize=14;endArrow=none;endFill=0;" parent="1" source="ZjU3WxE_IYfysGuQ2glQ-43" target="ZjU3WxE_IYfysGuQ2glQ-35" edge="1">
          <mxGeometry relative="1" as="geometry" />
        </mxCell>
        <mxCell id="ZjU3WxE_IYfysGuQ2glQ-43" value="lives" style="shape=rhombus;perimeter=rhombusPerimeter;whiteSpace=wrap;html=1;align=center;fontSize=14;" parent="1" vertex="1">
          <mxGeometry x="565" y="145" width="120" height="60" as="geometry" />
        </mxCell>
        <mxCell id="ZjU3WxE_IYfysGuQ2glQ-46" value="&lt;font style=&quot;font-size: 14px&quot;&gt;atmosphere&lt;/font&gt;" style="ellipse;whiteSpace=wrap;html=1;align=center;fontSize=18;rotation=90;" parent="1" vertex="1">
          <mxGeometry x="870" y="30" width="100" height="40" as="geometry" />
        </mxCell>
        <mxCell id="ZjU3WxE_IYfysGuQ2glQ-48" value="&lt;font style=&quot;font-size: 14px&quot;&gt;environment&lt;/font&gt;" style="ellipse;whiteSpace=wrap;html=1;align=center;fontSize=18;rotation=90;" parent="1" vertex="1">
          <mxGeometry x="950" y="30" width="100" height="40" as="geometry" />
        </mxCell>
        <mxCell id="ZjU3WxE_IYfysGuQ2glQ-52" style="edgeStyle=orthogonalEdgeStyle;rounded=0;orthogonalLoop=1;jettySize=auto;html=1;exitX=1;exitY=0.5;exitDx=0;exitDy=0;fontSize=14;endArrow=none;endFill=0;entryX=0;entryY=0.5;entryDx=0;entryDy=0;" parent="1" source="ZjU3WxE_IYfysGuQ2glQ-51" target="ZjU3WxE_IYfysGuQ2glQ-53" edge="1">
          <mxGeometry relative="1" as="geometry">
            <mxPoint x="1270" y="190" as="targetPoint" />
          </mxGeometry>
        </mxCell>
        <mxCell id="ZjU3WxE_IYfysGuQ2glQ-51" value="take care" style="shape=rhombus;perimeter=rhombusPerimeter;whiteSpace=wrap;html=1;align=center;fontSize=14;" parent="1" vertex="1">
          <mxGeometry x="1000" y="160" width="120" height="60" as="geometry" />
        </mxCell>
        <mxCell id="ZjU3WxE_IYfysGuQ2glQ-77" style="edgeStyle=orthogonalEdgeStyle;rounded=0;orthogonalLoop=1;jettySize=auto;html=1;exitX=1;exitY=0.5;exitDx=0;exitDy=0;entryX=0;entryY=0.25;entryDx=0;entryDy=0;fontSize=14;endArrow=none;endFill=0;" parent="1" source="ZjU3WxE_IYfysGuQ2glQ-53" target="ZjU3WxE_IYfysGuQ2glQ-76" edge="1">
          <mxGeometry relative="1" as="geometry" />
        </mxCell>
        <mxCell id="ZjU3WxE_IYfysGuQ2glQ-53" value="&lt;font style=&quot;font-size: 15px&quot;&gt;aux_keeper&lt;/font&gt;" style="rounded=1;whiteSpace=wrap;html=1;" parent="1" vertex="1">
          <mxGeometry x="1190" y="170" width="110" height="40" as="geometry" />
        </mxCell>
        <mxCell id="ZjU3WxE_IYfysGuQ2glQ-80" style="edgeStyle=orthogonalEdgeStyle;rounded=0;orthogonalLoop=1;jettySize=auto;html=1;exitX=1;exitY=0.5;exitDx=0;exitDy=0;entryX=0;entryY=0.5;entryDx=0;entryDy=0;fontSize=14;endArrow=none;endFill=0;" parent="1" source="ZjU3WxE_IYfysGuQ2glQ-57" target="ZjU3WxE_IYfysGuQ2glQ-76" edge="1">
          <mxGeometry relative="1" as="geometry" />
        </mxCell>
        <mxCell id="ZjU3WxE_IYfysGuQ2glQ-57" value="&lt;font style=&quot;font-size: 15px&quot;&gt;keeper&lt;/font&gt;" style="rounded=1;whiteSpace=wrap;html=1;" parent="1" vertex="1">
          <mxGeometry x="1190" y="260" width="110" height="40" as="geometry" />
        </mxCell>
        <mxCell id="ZjU3WxE_IYfysGuQ2glQ-61" style="edgeStyle=orthogonalEdgeStyle;rounded=0;orthogonalLoop=1;jettySize=auto;html=1;exitX=1;exitY=0.5;exitDx=0;exitDy=0;entryX=0;entryY=0.5;entryDx=0;entryDy=0;fontSize=14;endArrow=none;endFill=0;" parent="1" source="ZjU3WxE_IYfysGuQ2glQ-59" target="ZjU3WxE_IYfysGuQ2glQ-57" edge="1">
          <mxGeometry relative="1" as="geometry" />
        </mxCell>
        <mxCell id="ZjU3WxE_IYfysGuQ2glQ-59" value="take care" style="shape=rhombus;perimeter=rhombusPerimeter;whiteSpace=wrap;html=1;align=center;fontSize=14;" parent="1" vertex="1">
          <mxGeometry x="770" y="230" width="120" height="60" as="geometry" />
        </mxCell>
        <mxCell id="ZjU3WxE_IYfysGuQ2glQ-67" style="edgeStyle=orthogonalEdgeStyle;rounded=0;orthogonalLoop=1;jettySize=auto;html=1;exitX=1;exitY=0.5;exitDx=0;exitDy=0;entryX=0;entryY=0.5;entryDx=0;entryDy=0;fontSize=14;endArrow=none;endFill=0;" parent="1" source="ZjU3WxE_IYfysGuQ2glQ-62" target="ZjU3WxE_IYfysGuQ2glQ-66" edge="1">
          <mxGeometry relative="1" as="geometry" />
        </mxCell>
        <mxCell id="--BbF7dpxxaCs9N4afC4-4" style="edgeStyle=orthogonalEdgeStyle;rounded=0;orthogonalLoop=1;jettySize=auto;html=1;exitX=1;exitY=1;exitDx=0;exitDy=0;entryX=0;entryY=0.5;entryDx=0;entryDy=0;endArrow=none;endFill=0;" edge="1" parent="1" source="ZjU3WxE_IYfysGuQ2glQ-62" target="--BbF7dpxxaCs9N4afC4-2">
          <mxGeometry relative="1" as="geometry" />
        </mxCell>
        <mxCell id="--BbF7dpxxaCs9N4afC4-5" style="edgeStyle=orthogonalEdgeStyle;rounded=0;orthogonalLoop=1;jettySize=auto;html=1;exitX=0;exitY=1;exitDx=0;exitDy=0;entryX=0;entryY=0.5;entryDx=0;entryDy=0;endArrow=none;endFill=0;" edge="1" parent="1" source="ZjU3WxE_IYfysGuQ2glQ-62" target="--BbF7dpxxaCs9N4afC4-1">
          <mxGeometry relative="1" as="geometry" />
        </mxCell>
        <mxCell id="ZjU3WxE_IYfysGuQ2glQ-62" value="consultations" style="shape=rhombus;perimeter=rhombusPerimeter;whiteSpace=wrap;html=1;align=center;fontSize=14;" parent="1" vertex="1">
          <mxGeometry x="680" y="310" width="120" height="60" as="geometry" />
        </mxCell>
        <mxCell id="ZjU3WxE_IYfysGuQ2glQ-79" style="edgeStyle=orthogonalEdgeStyle;rounded=0;orthogonalLoop=1;jettySize=auto;html=1;exitX=1;exitY=0.5;exitDx=0;exitDy=0;entryX=0;entryY=0.75;entryDx=0;entryDy=0;fontSize=14;endArrow=none;endFill=0;" parent="1" source="ZjU3WxE_IYfysGuQ2glQ-66" target="ZjU3WxE_IYfysGuQ2glQ-76" edge="1">
          <mxGeometry relative="1" as="geometry" />
        </mxCell>
        <mxCell id="ZjU3WxE_IYfysGuQ2glQ-66" value="&lt;span style=&quot;font-size: 14px&quot;&gt;veterinary&lt;/span&gt;" style="rounded=1;whiteSpace=wrap;html=1;" parent="1" vertex="1">
          <mxGeometry x="1190" y="380" width="110" height="40" as="geometry" />
        </mxCell>
        <mxCell id="ZjU3WxE_IYfysGuQ2glQ-85" style="edgeStyle=orthogonalEdgeStyle;rounded=0;orthogonalLoop=1;jettySize=auto;html=1;exitX=1;exitY=0.5;exitDx=0;exitDy=0;fontSize=14;endArrow=none;endFill=0;entryX=0;entryY=0.5;entryDx=0;entryDy=0;" parent="1" source="ZjU3WxE_IYfysGuQ2glQ-76" target="ZjU3WxE_IYfysGuQ2glQ-86" edge="1">
          <mxGeometry relative="1" as="geometry">
            <mxPoint x="1560" y="280.42105263157896" as="targetPoint" />
          </mxGeometry>
        </mxCell>
        <mxCell id="ZjU3WxE_IYfysGuQ2glQ-76" value="ISA" style="triangle;whiteSpace=wrap;html=1;fontSize=14;" parent="1" vertex="1">
          <mxGeometry x="1430" y="240" width="60" height="80" as="geometry" />
        </mxCell>
        <mxCell id="ZjU3WxE_IYfysGuQ2glQ-84" style="edgeStyle=orthogonalEdgeStyle;rounded=0;orthogonalLoop=1;jettySize=auto;html=1;exitX=1;exitY=0.5;exitDx=0;exitDy=0;entryX=-0.006;entryY=0.847;entryDx=0;entryDy=0;entryPerimeter=0;fontSize=14;endArrow=none;endFill=0;" parent="1" source="ZjU3WxE_IYfysGuQ2glQ-81" target="ZjU3WxE_IYfysGuQ2glQ-76" edge="1">
          <mxGeometry relative="1" as="geometry">
            <Array as="points">
              <mxPoint x="1390" y="510" />
              <mxPoint x="1390" y="308" />
            </Array>
          </mxGeometry>
        </mxCell>
        <mxCell id="ZjU3WxE_IYfysGuQ2glQ-81" value="&lt;span style=&quot;font-size: 14px&quot;&gt;admin&lt;/span&gt;" style="rounded=1;whiteSpace=wrap;html=1;" parent="1" vertex="1">
          <mxGeometry x="1190" y="490" width="110" height="40" as="geometry" />
        </mxCell>
        <mxCell id="ZjU3WxE_IYfysGuQ2glQ-88" style="edgeStyle=orthogonalEdgeStyle;rounded=0;orthogonalLoop=1;jettySize=auto;html=1;exitX=0.75;exitY=0;exitDx=0;exitDy=0;entryX=1;entryY=0.5;entryDx=0;entryDy=0;fontSize=14;endArrow=none;endFill=0;" parent="1" source="ZjU3WxE_IYfysGuQ2glQ-86" target="ZjU3WxE_IYfysGuQ2glQ-87" edge="1">
          <mxGeometry relative="1" as="geometry" />
        </mxCell>
        <mxCell id="ZjU3WxE_IYfysGuQ2glQ-90" style="edgeStyle=orthogonalEdgeStyle;rounded=0;orthogonalLoop=1;jettySize=auto;html=1;exitX=0.5;exitY=0;exitDx=0;exitDy=0;entryX=1;entryY=0.5;entryDx=0;entryDy=0;fontSize=14;endArrow=none;endFill=0;" parent="1" source="ZjU3WxE_IYfysGuQ2glQ-86" target="ZjU3WxE_IYfysGuQ2glQ-89" edge="1">
          <mxGeometry relative="1" as="geometry" />
        </mxCell>
        <mxCell id="ZjU3WxE_IYfysGuQ2glQ-92" style="edgeStyle=orthogonalEdgeStyle;rounded=0;orthogonalLoop=1;jettySize=auto;html=1;exitX=0.25;exitY=0;exitDx=0;exitDy=0;entryX=1;entryY=0.5;entryDx=0;entryDy=0;fontSize=14;endArrow=none;endFill=0;" parent="1" source="ZjU3WxE_IYfysGuQ2glQ-86" target="ZjU3WxE_IYfysGuQ2glQ-91" edge="1">
          <mxGeometry relative="1" as="geometry">
            <Array as="points">
              <mxPoint x="1610" y="225" />
              <mxPoint x="1540" y="225" />
            </Array>
          </mxGeometry>
        </mxCell>
        <mxCell id="ZjU3WxE_IYfysGuQ2glQ-96" style="edgeStyle=orthogonalEdgeStyle;rounded=0;orthogonalLoop=1;jettySize=auto;html=1;exitX=1;exitY=0.25;exitDx=0;exitDy=0;entryX=1;entryY=0.5;entryDx=0;entryDy=0;fontSize=14;endArrow=none;endFill=0;" parent="1" source="ZjU3WxE_IYfysGuQ2glQ-86" target="ZjU3WxE_IYfysGuQ2glQ-95" edge="1">
          <mxGeometry relative="1" as="geometry" />
        </mxCell>
        <mxCell id="ZjU3WxE_IYfysGuQ2glQ-98" style="edgeStyle=orthogonalEdgeStyle;rounded=0;orthogonalLoop=1;jettySize=auto;html=1;exitX=0.25;exitY=1;exitDx=0;exitDy=0;entryX=0.25;entryY=0;entryDx=0;entryDy=0;fontSize=14;endArrow=none;endFill=0;" parent="1" source="ZjU3WxE_IYfysGuQ2glQ-86" target="ZjU3WxE_IYfysGuQ2glQ-97" edge="1">
          <mxGeometry relative="1" as="geometry" />
        </mxCell>
        <mxCell id="ZjU3WxE_IYfysGuQ2glQ-86" value="&lt;font size=&quot;3&quot;&gt;employees&lt;/font&gt;" style="rounded=1;whiteSpace=wrap;html=1;" parent="1" vertex="1">
          <mxGeometry x="1570" y="245" width="160" height="70" as="geometry" />
        </mxCell>
        <mxCell id="ZjU3WxE_IYfysGuQ2glQ-87" value="&lt;font style=&quot;font-size: 14px&quot;&gt;&lt;u&gt;nif&lt;/u&gt;&lt;/font&gt;" style="ellipse;whiteSpace=wrap;html=1;align=center;fontSize=18;rotation=90;" parent="1" vertex="1">
          <mxGeometry x="1700" y="140" width="100" height="40" as="geometry" />
        </mxCell>
        <mxCell id="ZjU3WxE_IYfysGuQ2glQ-89" value="&lt;font style=&quot;font-size: 14px&quot;&gt;nameE&lt;/font&gt;" style="ellipse;whiteSpace=wrap;html=1;align=center;fontSize=18;rotation=90;" parent="1" vertex="1">
          <mxGeometry x="1600" y="140" width="100" height="40" as="geometry" />
        </mxCell>
        <mxCell id="ZjU3WxE_IYfysGuQ2glQ-91" value="&lt;font style=&quot;font-size: 14px&quot;&gt;dateS&lt;/font&gt;" style="ellipse;whiteSpace=wrap;html=1;align=center;fontSize=18;rotation=90;" parent="1" vertex="1">
          <mxGeometry x="1490" y="145" width="100" height="40" as="geometry" />
        </mxCell>
        <mxCell id="ZjU3WxE_IYfysGuQ2glQ-95" value="&lt;font style=&quot;font-size: 14px&quot;&gt;telephone&lt;/font&gt;" style="ellipse;whiteSpace=wrap;html=1;align=center;fontSize=18;rotation=90;dashed=1;" parent="1" vertex="1">
          <mxGeometry x="1790" y="145" width="100" height="40" as="geometry" />
        </mxCell>
        <mxCell id="ZjU3WxE_IYfysGuQ2glQ-99" style="edgeStyle=orthogonalEdgeStyle;rounded=0;orthogonalLoop=1;jettySize=auto;html=1;exitX=0.75;exitY=0;exitDx=0;exitDy=0;entryX=0.75;entryY=1;entryDx=0;entryDy=0;fontSize=14;endArrow=none;endFill=0;" parent="1" source="ZjU3WxE_IYfysGuQ2glQ-97" target="ZjU3WxE_IYfysGuQ2glQ-86" edge="1">
          <mxGeometry relative="1" as="geometry" />
        </mxCell>
        <mxCell id="ZjU3WxE_IYfysGuQ2glQ-97" value="&lt;font style=&quot;font-size: 14px&quot;&gt;responsible&lt;/font&gt;" style="rounded=1;whiteSpace=wrap;html=1;" parent="1" vertex="1">
          <mxGeometry x="1595" y="430" width="110" height="40" as="geometry" />
        </mxCell>
        <mxCell id="--BbF7dpxxaCs9N4afC4-1" value="&lt;font style=&quot;font-size: 14px&quot;&gt;&lt;u&gt;consult_date&lt;/u&gt;&lt;/font&gt;" style="ellipse;whiteSpace=wrap;html=1;align=center;fontSize=18;rotation=90;" vertex="1" parent="1">
          <mxGeometry x="640" y="430" width="100" height="40" as="geometry" />
        </mxCell>
        <mxCell id="--BbF7dpxxaCs9N4afC4-2" value="&lt;font style=&quot;font-size: 14px&quot;&gt;&lt;u&gt;diagnosis&lt;/u&gt;&lt;/font&gt;" style="ellipse;whiteSpace=wrap;html=1;align=center;fontSize=18;rotation=90;" vertex="1" parent="1">
          <mxGeometry x="720" y="430" width="100" height="40" as="geometry" />
        </mxCell>
      </root>
    </mxGraphModel>
  </diagram>
</mxfile>
